<svg xmlns="http://www.w3.org/2000/svg" width="118" height="21" fill="none">
  <path fill="#111" d="M1.42 19.22a7.92 7.92 0 0 1-1.4-5.06V6.84c-.13-1.8.36-3.6 1.38-5.1C2.33.57 3.92-.01 6.16 0c2.25 0 3.77.52 4.56 1.53a6.43 6.43 0 0 1 1.33 4.38v1.71H7.91V5.76c0-.49-.05-.98-.13-1.46a1.62 1.62 0 0 0-.47-.93 1.58 1.58 0 0 0-1.16-.36c-.3-.04-.6 0-.87.14-.27.13-.49.34-.63.6a5.2 5.2 0 0 0-.34 2.14v9.28c-.05.73.09 1.47.39 2.14a1.52 1.52 0 0 0 1.45.71 1.33 1.33 0 0 0 1.4-.72c.25-.68.35-1.4.32-2.13v-1.95H12v1.69a6.93 6.93 0 0 1-1.23 4.5C9.9 20.46 8.38 21 6.21 21c-2.16 0-3.85-.59-4.79-1.78ZM17.7.28h4.76l4 20.48h-3.94l-.72-4.53h-3.32l-.8 4.5h-4.01L17.7.28Zm3.66 13.38L20.1 5.43l-1.25 8.23h2.51ZM29.54 3.36H26.3V.28h10.75v3.08h-3.21v17.37h-4.3l.01-17.37Z"/>
  <path fill="#444" d="M45.46.28h8.15v2.13H48.4v6.75h4.23v2.02H48.4v7.5h5.26v2.05h-8.2V.28ZM56.02.28h2l6.02 13.58V.28h2.45v20.48H64.6L58.6 6.8v13.93h-2.49L56.02.28ZM69.72.28h8.14v2.13h-5.21v6.75h4.27v2.02h-4.23v7.5h5.23v2.05h-8.2V.28ZM80.27.28h4.23a7.16 7.16 0 0 1 4.68 1.28c1 .85 1.5 2.23 1.5 4.15 0 2.6-.87 4.2-2.6 4.77l3 10.25h-2.84l-2.76-9.6h-2.27v9.6h-2.94V.28Zm4.01 8.78c.97.09 1.93-.18 2.7-.74a3.45 3.45 0 0 0 .83-2.65 5.56 5.56 0 0 0-.3-1.95 1.84 1.84 0 0 0-1-1.05 4.89 4.89 0 0 0-2.05-.34h-1.29V9.1l1.11-.04ZM94.62 19.22A8.82 8.82 0 0 1 93.35 14V7.18c-.03-1.32.13-2.64.5-3.9.3-.96.9-1.79 1.75-2.35A6.05 6.05 0 0 1 98.95.1a5.41 5.41 0 0 1 4.19 1.44 6.69 6.69 0 0 1 1.28 4.51v.76h-2.75V6.2c.02-.76-.05-1.51-.18-2.26-.1-.48-.37-.9-.77-1.2a3.07 3.07 0 0 0-1.72-.4c-.65-.05-1.3.14-1.81.55-.42.38-.69.89-.77 1.44-.13.8-.19 1.61-.17 2.43v7.6a7.15 7.15 0 0 0 .59 3.36 2.83 2.83 0 0 0 2.26 1.03 2.9 2.9 0 0 0 2.22-1.11c.48-1.13.69-2.35.6-3.56v-1.44h-2.66V10.6h5.31v10.12h-1.81l-.3-2.35a3.6 3.6 0 0 1-1.4 1.93c-.67.48-1.5.71-2.33.67a4.79 4.79 0 0 1-4.12-1.76ZM110.67 13.51 106.14.28h2.72l3.22 9.87 3.17-9.87H118l-4.5 13.23v7.22h-2.81l-.02-7.22Z"/>
</svg>
